# xmcd CD database file
#
# Track frame offsets:
#	150
#	13194
#	27095
#	40843
#	52928
#	66620
#	77879
#	91415
#	105155
#	121967
#	133597
#	145743
#	158053
#	170348
#	180933
#	203659
#	220382
#	250721
#	263644
#	275628
#
# Disc length: 3860 seconds
#
# Revision: 0
# Processed by: cddbd v1.5.2PL0 Copyright (c) Steve Scherf et al.
# Submitted via: CDex 1.70beta2
#
DISCID=0e0f1214
DTITLE=Dizzy Gillespie - Bebop Story Vol. 5 1949-51 CD 020
DYEAR=2008
DGENRE=Jazz
TTITLE0=Swedish Suite
TTITLE1=St. Louis Blues
TTITLE2=I Should Care
TTITLE3=That Old Black Magic
TTITLE4=Katy
TTITLE5=Jump-Did-Le-Ba
TTITLE6=Hey Pete Let's Eat Mo' Meat
TTITLE7=Jumpin' With Symphony Sid
TTITLE8=If Love Is Trouble
TTITLE9=In The Land  Of Oo-Bla-Dee
TTITLE10=She's Gone Again
TTITLE11=Nice Work If You Can Get It
TTITLE12=Thinking Of You
TTITLE13=Too Much Weight
TTITLE14=Birk's Works
TTITLE15=Good Bait
TTITLE16=Night In Tunesia
TTITLE17=We Love To Boogie
TTITLE18=Tin Tin Deo
TTITLE19=Birk's Works
EXTD=YEAR: 2008
EXTT0=
EXTT1=
EXTT2=
EXTT3=
EXTT4=
EXTT5=
EXTT6=
EXTT7=
EXTT8=
EXTT9=
EXTT10=
EXTT11=
EXTT12=
EXTT13=
EXTT14=
EXTT15=
EXTT16=
EXTT17=
EXTT18=
EXTT19=
PLAYORDER=
